# xmcd
#
# Track frame offsets:
#	150
#	10637
#	20925
#	29247
#	47765
#	61612
#	75710
#	92937
#	104807
#	114655
#
# Disc length: 1645 seconds
#
# Revision: 1
# Processed by: cddbd v1.4PL0 Copyright (c) Steve Scherf et al.
# Submitted via: audiograbber 1.81.02
#
DISCID=85066b0a
DTITLE=Andy Griifith - Good Ol' Country Livin'
DYEAR=1900
DGENRE=
TTITLE0=Andy Griffith Theme
TTITLE1=The Preacher And The Bear
TTITLE2=Flop Eared Mule
TTITLE3=Swan Lake
TTITLE4=How Long, How Long Blues
TTITLE5=Discovery Of America
TTITLE6=Careless Love
TTITLE7=Conversation With A Mule
TTITLE8=The Whistling Ping Pong Game
TTITLE9=The Fishin' Hole
EXTD=
EXTT0=
EXTT1=
EXTT2=
EXTT3=
EXTT4=
EXTT5=
EXTT6=
EXTT7=
EXTT8=
EXTT9=
PLAYORDER=
